<svg xmlns="http://www.w3.org/2000/svg" width="600" height="400" viewBox="0 0 600 400"><defs>
  <radialGradient id="field" cx="48%" cy="36%" r="74%"><stop stop-color="#31584c"/><stop offset=".53" stop-color="#17392f"/><stop offset="1" stop-color="#0b1d19"/></radialGradient>
  <linearGradient id="metal" x1="0" x2=".8" y2="1"><stop stop-color="#f0e1b6"/><stop offset=".3" stop-color="#baad7c"/><stop offset=".63" stop-color="#787d58"/><stop offset="1" stop-color="#c1b182"/></linearGradient>
  <linearGradient id="stone" x1="0" y1="0" x2="1" y2=".7"><stop stop-color="#899980"/><stop offset=".45" stop-color="#5b7864"/><stop offset="1" stop-color="#273f35"/></linearGradient>
  <linearGradient id="glass" x1="0" y1="0" x2="1" y2="1"><stop stop-color="#e8e8ca" stop-opacity=".84"/><stop offset=".38" stop-color="#a8cdb6" stop-opacity=".52"/><stop offset="1" stop-color="#628e77" stop-opacity=".18"/></linearGradient>
  <radialGradient id="light"><stop stop-color="#f4ebc0" stop-opacity=".5"/><stop offset="1" stop-color="#f4ebc0" stop-opacity="0"/></radialGradient>
  <radialGradient id="shadow"><stop stop-color="#000" stop-opacity=".65"/><stop offset="1" stop-color="#000" stop-opacity="0"/></radialGradient>
  <pattern id="hatch" width="6" height="6" patternUnits="userSpaceOnUse"><path d="M-1 6L6-1M5 7L7 5" stroke="#e7dbab" stroke-width=".65" opacity=".22"/></pattern>
  <pattern id="paper" width="9" height="11" patternUnits="userSpaceOnUse"><circle cx="2" cy="3" r=".45" fill="#c7d0b2" opacity=".15"/><circle cx="7" cy="8" r=".4" fill="#070f0b" opacity=".32"/></pattern>
  <filter id="soft"><feGaussianBlur stdDeviation="9"/></filter>
  <filter id="drop" x="-30%" y="-30%" width="160%" height="180%"><feDropShadow dx="0" dy="12" stdDeviation="9" flood-color="#000" flood-opacity=".4"/></filter>
</defs><rect width="600" height="400" fill="url(#field)"/><circle cx="300" cy="199" r="82" fill="none" stroke="#b9c9a3" stroke-width=".5" opacity=".13" /><circle cx="300" cy="199" r="112" fill="none" stroke="#b9c9a3" stroke-width=".8" opacity=".27" /><circle cx="300" cy="199" r="145" fill="none" stroke="#b9c9a3" stroke-width=".5" opacity=".13" stroke-dasharray="2 6"/><circle cx="300" cy="199" r="179" fill="none" stroke="#b9c9a3" stroke-width=".5" opacity=".13" /><path d="M473 199L480 199" stroke="#b9c9a3" opacity=".2" stroke-width=".6"/><path d="M476.0303754801844 217.50153799837466L479.0139411662892 217.81512338817762" stroke="#b9c9a3" opacity=".2" stroke-width=".6"/><path d="M473.1321253298836 235.8003692747434L476.066568132085 236.42410434719667" stroke="#b9c9a3" opacity=".2" stroke-width=".6"/><path d="M468.33700338424217 253.6960080043657L471.19017293312766 254.62305898749054" stroke="#b9c9a3" opacity=".2" stroke-width=".6"/><path d="M461.69754600274035 270.9923858244166L464.43818237566813 272.212595753644" stroke="#b9c9a3" opacity=".2" stroke-width=".6"/><path d="M449.8223948547079 285.5L455.88457268119896 289" stroke="#b9c9a3" opacity=".2" stroke-width=".6"/><path d="M443.1960080043657 303.0379896557678L445.62305898749054 304.80134541264516" stroke="#b9c9a3" opacity=".2" stroke-width=".6"/><path d="M431.5366341094988 317.4361173255179L433.76606858593095 319.4435091445945" stroke="#b9c9a3" opacity=".2" stroke-width=".6"/><path d="M418.4361173255179 330.5366341094988L420.4435091445945 332.76606858593095" stroke="#b9c9a3" opacity=".2" stroke-width=".6"/><path d="M404.0379896557678 342.1960080043657L405.80134541264516 344.62305898749054" stroke="#b9c9a3" opacity=".2" stroke-width=".6"/><path d="M386.5 348.8223948547079L390 354.88457268119896" stroke="#b9c9a3" opacity=".2" stroke-width=".6"/><path d="M371.99238582441666 360.69754600274035L373.21259575364405 363.43818237566813" stroke="#b9c9a3" opacity=".2" stroke-width=".6"/><path d="M354.6960080043657 367.33700338424217L355.62305898749054 370.19017293312766" stroke="#b9c9a3" opacity=".2" stroke-width=".6"/><path d="M336.8003692747434 372.1321253298836L337.42410434719665 375.066568132085" stroke="#b9c9a3" opacity=".2" stroke-width=".6"/><path d="M318.50153799837466 375.0303754801844L318.8151233881776 378.0139411662892" stroke="#b9c9a3" opacity=".2" stroke-width=".6"/><path d="M300.00000000000006 372L300.00000000000006 379" stroke="#b9c9a3" opacity=".2" stroke-width=".6"/><path d="M281.49846200162534 375.0303754801844L281.1848766118224 378.0139411662892" stroke="#b9c9a3" opacity=".2" stroke-width=".6"/><path d="M263.1996307252566 372.1321253298836L262.5758956528033 375.066568132085" stroke="#b9c9a3" opacity=".2" stroke-width=".6"/><path d="M245.3039919956343 367.33700338424217L244.37694101250946 370.19017293312766" stroke="#b9c9a3" opacity=".2" stroke-width=".6"/><path d="M228.0076141755834 360.6975460027404L226.78740424635598 363.43818237566813" stroke="#b9c9a3" opacity=".2" stroke-width=".6"/><path d="M213.50000000000006 348.8223948547079L210.00000000000006 354.88457268119896" stroke="#b9c9a3" opacity=".2" stroke-width=".6"/><path d="M195.96201034423228 342.1960080043657L194.19865458735484 344.62305898749054" stroke="#b9c9a3" opacity=".2" stroke-width=".6"/><path d="M181.56388267448216 330.53663410949883L179.55649085540557 332.766068585931" stroke="#b9c9a3" opacity=".2" stroke-width=".6"/><path d="M168.46336589050125 317.4361173255179L166.23393141406905 319.4435091445945" stroke="#b9c9a3" opacity=".2" stroke-width=".6"/><path d="M156.80399199563433 303.0379896557678L154.3769410125095 304.8013454126452" stroke="#b9c9a3" opacity=".2" stroke-width=".6"/><path d="M150.1776051452921 285.5L144.11542731880104 289" stroke="#b9c9a3" opacity=".2" stroke-width=".6"/><path d="M138.30245399725962 270.9923858244166L135.56181762433184 272.212595753644" stroke="#b9c9a3" opacity=".2" stroke-width=".6"/><path d="M131.66299661575783 253.6960080043657L128.80982706687237 254.62305898749054" stroke="#b9c9a3" opacity=".2" stroke-width=".6"/><path d="M126.86787467011641 235.8003692747434L123.93343186791498 236.42410434719667" stroke="#b9c9a3" opacity=".2" stroke-width=".6"/><path d="M123.9696245198156 217.50153799837463L120.98605883371079 217.8151233881776" stroke="#b9c9a3" opacity=".2" stroke-width=".6"/><path d="M127 199.00000000000009L120 199.0000000000001" stroke="#b9c9a3" opacity=".2" stroke-width=".6"/><path d="M123.9696245198156 180.4984620016254L120.98605883371079 180.18487661182246" stroke="#b9c9a3" opacity=".2" stroke-width=".6"/><path d="M126.86787467011641 162.19963072525664L123.93343186791498 161.57589565280335" stroke="#b9c9a3" opacity=".2" stroke-width=".6"/><path d="M131.6629966157578 144.30399199563433L128.80982706687234 143.3769410125095" stroke="#b9c9a3" opacity=".2" stroke-width=".6"/><path d="M138.30245399725965 127.00761417558336L135.56181762433184 125.78740424635596" stroke="#b9c9a3" opacity=".2" stroke-width=".6"/><path d="M150.1776051452921 112.50000000000004L144.115427318801 109.00000000000006" stroke="#b9c9a3" opacity=".2" stroke-width=".6"/><path d="M156.8039919956343 94.96201034423227L154.37694101250946 93.19865458735485" stroke="#b9c9a3" opacity=".2" stroke-width=".6"/><path d="M168.46336589050122 80.56388267448209L166.23393141406905 78.55649085540551" stroke="#b9c9a3" opacity=".2" stroke-width=".6"/><path d="M181.56388267448204 67.46336589050125L179.55649085540546 65.23393141406908" stroke="#b9c9a3" opacity=".2" stroke-width=".6"/><path d="M195.96201034423223 55.803991995634334L194.1986545873548 53.37694101250949" stroke="#b9c9a3" opacity=".2" stroke-width=".6"/><path d="M213.49999999999994 49.17760514529215L209.99999999999991 43.11542731880107" stroke="#b9c9a3" opacity=".2" stroke-width=".6"/><path d="M228.00761417558323 37.302453997259704L226.78740424635583 34.561817624331894" stroke="#b9c9a3" opacity=".2" stroke-width=".6"/><path d="M245.30399199563428 30.662996615757834L244.37694101250943 27.809827066872373" stroke="#b9c9a3" opacity=".2" stroke-width=".6"/><path d="M263.1996307252565 25.867874670116407L262.57589565280324 22.933431867915004" stroke="#b9c9a3" opacity=".2" stroke-width=".6"/><path d="M281.49846200162517 22.969624519815625L281.18487661182223 19.986058833710814" stroke="#b9c9a3" opacity=".2" stroke-width=".6"/><path d="M299.99999999999994 26L299.99999999999994 19" stroke="#b9c9a3" opacity=".2" stroke-width=".6"/><path d="M318.5015379983746 22.969624519815596L318.81512338817754 19.986058833710786" stroke="#b9c9a3" opacity=".2" stroke-width=".6"/><path d="M336.8003692747434 25.867874670116407L337.4241043471967 22.933431867915004" stroke="#b9c9a3" opacity=".2" stroke-width=".6"/><path d="M354.69600800436564 30.662996615757805L355.6230589874905 27.809827066872344" stroke="#b9c9a3" opacity=".2" stroke-width=".6"/><path d="M371.99238582441654 37.30245399725962L373.21259575364394 34.56181762433181" stroke="#b9c9a3" opacity=".2" stroke-width=".6"/><path d="M386.5 49.17760514529212L390 43.11542731880104" stroke="#b9c9a3" opacity=".2" stroke-width=".6"/><path d="M404.0379896557677 55.80399199563428L405.8013454126451 53.376941012509434" stroke="#b9c9a3" opacity=".2" stroke-width=".6"/><path d="M418.43611732551796 67.46336589050125L420.44350914459454 65.23393141406908" stroke="#b9c9a3" opacity=".2" stroke-width=".6"/><path d="M431.5366341094988 80.56388267448212L433.76606858593095 78.55649085540554" stroke="#b9c9a3" opacity=".2" stroke-width=".6"/><path d="M443.1960080043657 94.96201034423221L445.6230589874905 93.1986545873548" stroke="#b9c9a3" opacity=".2" stroke-width=".6"/><path d="M449.8223948547079 112.50000000000006L455.88457268119896 109.00000000000006" stroke="#b9c9a3" opacity=".2" stroke-width=".6"/><path d="M461.6975460027404 127.00761417558337L464.43818237566813 125.78740424635598" stroke="#b9c9a3" opacity=".2" stroke-width=".6"/><path d="M468.33700338424217 144.30399199563428L471.19017293312766 143.37694101250943" stroke="#b9c9a3" opacity=".2" stroke-width=".6"/><path d="M473.1321253298836 162.19963072525667L476.066568132085 161.57589565280338" stroke="#b9c9a3" opacity=".2" stroke-width=".6"/><path d="M476.0303754801844 180.49846200162534L479.0139411662892 180.18487661182238" stroke="#b9c9a3" opacity=".2" stroke-width=".6"/><path d="M300 10V30M300 368V390M102 199H125M475 199H498" stroke="#d8cfa3" opacity=".3" stroke-width=".7"/><path d="M40 48H97M40 48V105M560 48H503M560 48V105M40 352H97M40 352V295M560 352H503M560 352V295" stroke="#b9c9a3" stroke-width=".7" opacity=".23"/><ellipse cx="307" cy="328" rx="147" ry="24" fill="url(#shadow)"/>
  <path d="M76 139L285 196L78 146Z" fill="#e5dba9" opacity=".62"/><path d="M80 141L283 199" stroke="#fff3c3" stroke-width="1.5"/>
  <path d="M320 213L534 159L534 191Z" fill="#d4d3a0" opacity=".27"/><path d="M320 213L543 191L543 222Z" fill="#98b998" opacity=".32"/><path d="M320 213L542 223L542 254Z" fill="#769e84" opacity=".38"/><path d="M320 213L531 255L531 281Z" fill="#577f68" opacity=".4"/>
  <circle cx="292" cy="184" r="92" fill="url(#light)" opacity=".28"/>
  <g filter="url(#drop)"><path d="M167 310L298 270L440 309L306 354Z" fill="#375244" stroke="#9aae8c" stroke-width=".7"/><path d="M167 310L306 354V366L167 320Z" fill="#2a3e31" stroke="#73856a" stroke-width=".5"/><path d="M306 354L440 309V320L306 366Z" fill="#1c3026" stroke="#607962" stroke-width=".5"/>
  <path d="M206 300L298 90L397 292L300 324Z" fill="url(#glass)" stroke="#dce4bb" stroke-width="1.4"/>
  <path d="M298 90L300 324L397 292Z" fill="#375c4c" fill-opacity=".54" stroke="#c4d2aa" stroke-width=".8"/>
  <path d="M298 90L267 249L206 300Z" fill="#dce2b4" opacity=".3" stroke="#e2e8c6" stroke-width=".6"/>
  <path d="M267 249L397 292L300 324Z" fill="#c9d3a4" opacity=".2" stroke="#c4d2aa" stroke-width=".8"/>
  <path d="M281 139L233 282M286 146L242 279M291 153L251 276" stroke="#eff0cf" stroke-width=".8" opacity=".58"/>
  <path d="M211 301L299 317L390 292" fill="none" stroke="#f0edc4" stroke-width="1" opacity=".8"/>
  <path d="M288 198L315 215L298 229L282 212Z" fill="#f3f0cf" opacity=".7"/><circle cx="293" cy="201" r="22" fill="url(#light)"/>
  <path d="M298 70V107M280 90H316M286 78L310 102M310 78L286 102" stroke="#dedfb6" stroke-width=".65"/><circle cx="298" cy="90" r="3" fill="#f5ebc5"/></g><rect width="600" height="400" fill="url(#paper)"/><rect x=".5" y=".5" width="599" height="399" fill="none" stroke="#b9c9a3" opacity=".14"/></svg>